<svg width="32" height="34" viewBox="0 0 32 34" fill="none" xmlns="http://www.w3.org/2000/svg">
<path d="M32 28.5153L24.8938 23.5851C27.5652 23.0919 29.3335 22.5743 29.3335 22.5743L23.3561 17.5978C25.3578 17.1206 26.667 16.6406 26.667 16.6406L21.6337 11.3865C23.0681 10.8932 24 10.4094 24 10.4094L15.9994 0L8 10.4094C8 10.4094 8.93186 10.8932 10.3658 11.3865L5.33352 16.6406C5.33352 16.6406 6.64221 17.1206 8.64331 17.5972L2.66648 22.5743C2.66648 22.5743 4.43476 23.0919 7.10566 23.5851L0 28.5153C0 28.5153 5.54648 29.8703 12.2665 30.2858V33.1034H19.7335V30.2858C26.453 29.8703 32 28.5153 32 28.5153Z" fill="white"/>
</svg>
